HIERARCHY
ROOT Hips
{
	OFFSET 0.000000 0.000000 0.000000
	CHANNELS 6 Xposition Yposition Zposition Zrotation Yrotation Xrotation 
	JOINT LHipJoint
	{
		OFFSET 0.000000 0.000000 0.000000
		CHANNELS 3 Zrotation Yrotation Xrotation
		JOINT LeftUpLeg
		{
			OFFSET 1.363060 -1.794630 0.839290
			CHANNELS 3 Zrotation Yrotation Xrotation
			JOINT LeftLeg
			{
				OFFSET 2.448110 -6.726130 0.000000
				CHANNELS 3 Zrotation Yrotation Xrotation
				JOINT LeftFoot
				{
					OFFSET 2.562200 -7.039590 0.000000
					CHANNELS 3 Zrotation Yrotation Xrotation
					JOINT LeftToeBase
					{
						OFFSET 0.157640 -0.433110 2.322550
						CHANNELS 3 Zrotation Yrotation Xrotation
						End Site
						{
							OFFSET 0.000000 0.000000 0.000000
						}
					}
				}
			}
		}
	}
	JOINT RHipJoint
	{
		OFFSET 0.000000 0.000000 0.000000
		CHANNELS 3 Zrotation Yrotation Xrotation
		JOINT RightUpLeg
		{
			OFFSET -1.305520 -1.794630 0.839290
			CHANNELS 3 Zrotation Yrotation Xrotation
			JOINT RightLeg
			{
				OFFSET -2.542530 -6.985550 0.000000
				CHANNELS 3 Zrotation Yrotation Xrotation
				JOINT RightFoot
				{
					OFFSET -2.568260 -7.056230 0.000000
					CHANNELS 3 Zrotation Yrotation Xrotation
					JOINT RightToeBase
					{
						OFFSET -0.164730 -0.452590 2.363150
						CHANNELS 3 Zrotation Yrotation Xrotation
						End Site
						{
							OFFSET 0.000000 0.000000 0.000000
						}
					}
				}
			}
		}
	}
	JOINT LowerBack
	{
		OFFSET 0.000000 0.000000 0.000000
		CHANNELS 3 Zrotation Yrotation Xrotation
		JOINT Spine
		{
			OFFSET 0.028270 2.035590 -0.193380
			CHANNELS 3 Zrotation Yrotation Xrotation
			JOINT Spine1
			{
				OFFSET 0.056720 2.048850 -0.042750
				CHANNELS 3 Zrotation Yrotation Xrotation
				JOINT Neck
				{
					OFFSET 0.000000 0.000000 0.000000
					CHANNELS 3 Zrotation Yrotation Xrotation
					JOINT Neck1
					{
						OFFSET -0.054170 1.746240 0.172020
						CHANNELS 3 Zrotation Yrotation Xrotation
						JOINT Head
						{
							OFFSET 0.104070 1.761360 -0.123970
							CHANNELS 3 Zrotation Yrotation Xrotation
							End Site
							{
								OFFSET 0.000000 0.000000 0.000000
							}
						}
					}
				}
				JOINT LeftShoulder
				{
					OFFSET 0.000000 0.000000 0.000000
					CHANNELS 3 Zrotation Yrotation Xrotation
					JOINT LeftArm
					{
						OFFSET 3.362410 1.200890 -0.311210
						CHANNELS 3 Zrotation Yrotation Xrotation
						JOINT LeftForeArm
						{
							OFFSET 4.983000 -0.000000 -0.000000
							CHANNELS 3 Zrotation Yrotation Xrotation
							JOINT LeftHand
							{
								OFFSET 3.483560 -0.000000 -0.000000
								CHANNELS 3 Zrotation Yrotation Xrotation
								JOINT LeftFingerBase
								{
									OFFSET 0.000000 0.000000 0.000000
									CHANNELS 3 Zrotation Yrotation Xrotation
									JOINT LeftHandIndex1
									{
										OFFSET 0.715260 -0.000000 -0.000000
										CHANNELS 3 Zrotation Yrotation Xrotation
										End Site
										{
											OFFSET 0.000000 0.000000 0.000000
										}
									}
								}
								JOINT LThumb
								{
									OFFSET 0.000000 0.000000 0.000000
									CHANNELS 3 Zrotation Yrotation Xrotation
									End Site
									{
										OFFSET 0.000000 0.000000 0.000000
									}
								}
							}
						}
					}
				}
				JOINT RightShoulder
				{
					OFFSET 0.000000 0.000000 0.000000
					CHANNELS 3 Zrotation Yrotation Xrotation
					JOINT RightArm
					{
						OFFSET -3.136600 1.374050 -0.404650
						CHANNELS 3 Zrotation Yrotation Xrotation
						JOINT RightForeArm
						{
							OFFSET -5.241900 -0.000000 -0.000000
							CHANNELS 3 Zrotation Yrotation Xrotation
							JOINT RightHand
							{
								OFFSET -3.444170 -0.000000 -0.000000
								CHANNELS 3 Zrotation Yrotation Xrotation
								JOINT RightFingerBase
								{
									OFFSET 0.000000 0.000000 0.000000
									CHANNELS 3 Zrotation Yrotation Xrotation
									JOINT RightHandIndex1
									{
										OFFSET -0.622530 -0.000000 -0.000000
										CHANNELS 3 Zrotation Yrotation Xrotation
										End Site
										{
											OFFSET 0.000000 0.000000 0.000000
										}
									}
								}
								JOINT RThumb
								{
									OFFSET 0.000000 0.000000 0.000000
									CHANNELS 3 Zrotation Yrotation Xrotation
									End Site
									{
										OFFSET 0.000000 0.000000 0.000000
									}
								}
							}
						}
					}
				}
			}
		}
	}
}
MOTION
Frames: 9
Frame Time: 0.008333
3.396915 17.780600 0.332286 -0.476597 2.934751 7.863809 -1.943492 16.914997 4.686921 -14.588436 -6.456344 -11.864298 0.998965 -1.796285 15.752555 28.129890 -6.946772 -7.572272 -3.857895 1.089318 -8.148660 -1.744379 -21.432341 -4.454632 20.267869 -5.602188 -6.799624 -3.454001 -0.677946 21.569660 -33.213118 14.639942 -11.503882 5.627060 -3.592015 -8.711553 3.691193 4.275454 7.638565 10.774211 3.671606 13.309324 -11.694423 -9.762989 -31.049178 -4.143315 -0.470594 -14.541330 5.149802 -0.657216 10.285187 -1.611706 -0.608149 -8.457007 10.700415 31.579861 -5.723422 -29.775665 -17.284088 16.935351 6.473376 -16.536094 1.939479 3.620295 8.991177 -0.056315 3.548211 11.698852 -0.000000 0.000000 0.000000 0.000000 0.000000 0.000000 0.000000 -19.980391 -38.326040 -9.194255 45.576745 19.046259 14.427345 -6.578743 13.965950 9.531753 0.919640 -0.458620 1.777043 1.287408 -9.279970 -0.000000 0.000000 0.000000 0.000000 0.000000 0.000000 0.000000 
3.396780 17.780450 0.332969 -0.476430 2.937884 7.864873 -1.944100 16.917150 4.685213 -14.588739 -6.457583 -11.868835 1.000924 -1.794510 15.764717 28.133155 -6.948152 -7.570681 -3.858102 1.089063 -8.150302 -1.745089 -21.430316 -4.454292 20.263730 -5.609961 -6.794238 -3.447557 -0.673986 21.559063 -33.202121 14.647970 -11.502831 5.633112 -3.594366 -8.719727 3.692436 4.274880 7.641581 10.776388 3.670769 13.315104 -11.701400 -9.766105 -31.042557 -4.137397 -0.474427 -14.551306 5.149906 -0.660824 10.285336 -1.612369 -0.610763 -8.457092 10.696129 31.582247 -5.732587 -29.765766 -17.300338 16.933248 6.475554 -16.543118 1.937553 3.624490 8.984372 -0.053773 3.552373 11.698604 -0.000000 0.000000 0.000000 0.000000 0.000000 0.000000 0.000000 -19.987023 -38.329448 -9.158957 45.538617 19.053968 14.520629 -6.558472 14.030857 9.513988 0.910741 -0.452506 1.777790 1.280442 -9.277847 -0.000000 0.000000 0.000000 0.000000 0.000000 0.000000 0.000000 
3.396570 17.780450 0.333529 -0.476520 2.937213 7.865491 -1.944842 16.918008 4.683760 -14.588257 -6.459222 -11.871971 1.003676 -1.791316 15.775872 28.135870 -6.948055 -7.585881 -3.853645 1.088673 -8.142086 -1.745152 -21.429829 -4.454884 20.260184 -5.616019 -6.791715 -3.443663 -0.672140 21.556894 -33.195423 14.656578 -11.511068 5.634712 -3.595187 -8.718268 3.693086 4.272716 7.645194 10.775833 3.668530 13.321291 -11.701331 -9.765765 -31.046844 -4.137339 -0.475535 -14.548739 5.149862 -0.662392 10.282040 -1.612554 -0.611716 -8.458347 10.695283 31.588196 -5.732561 -29.756412 -17.312227 16.942910 6.477618 -16.548608 1.946867 3.627463 8.973678 -0.044990 3.553652 11.696939 -0.000000 0.000000 0.000000 0.000000 0.000000 0.000000 0.000000 -19.985558 -38.334731 -9.162400 45.531548 19.073787 14.529222 -6.566824 14.049934 9.527411 0.898393 -0.447981 1.794889 1.270722 -9.276070 -0.000000 0.000000 0.000000 0.000000 0.000000 0.000000 0.000000 
3.396420 17.780450 0.333990 -0.475745 2.938674 7.867064 -1.945006 16.919937 4.680381 -14.590563 -6.454978 -11.871160 1.003544 -1.791059 15.775691 28.151818 -6.950251 -7.578709 -3.851088 1.085661 -8.144752 -1.746057 -21.429799 -4.452774 20.255814 -5.619611 -6.791143 -3.437139 -0.667516 21.549987 -33.184830 14.665966 -11.509120 5.638277 -3.597418 -8.719386 3.695281 4.269830 7.648226 10.771173 3.665394 13.328065 -11.703331 -9.764339 -31.059901 -4.136672 -0.467199 -14.541564 5.156582 -0.656421 10.280555 -1.611002 -0.613839 -8.460057 10.697519 31.585670 -5.752121 -29.738400 -17.323252 16.919119 6.460810 -16.569768 1.909155 3.607162 9.025414 -0.079828 3.539165 11.704295 -0.000000 0.000000 0.000000 0.000000 0.000000 0.000000 0.000000 -19.991124 -38.333932 -9.161411 45.525200 19.079896 14.524827 -6.569727 14.074091 9.517694 0.894427 -0.447941 1.793916 1.266671 -9.274914 -0.000000 0.000000 0.000000 0.000000 0.000000 0.000000 0.000000 
3.396150 17.780300 0.334773 -0.474589 2.934052 7.865969 -1.945438 16.920553 4.683960 -14.588742 -6.450830 -11.866276 1.001432 -1.792059 15.767452 28.148481 -6.951334 -7.577982 -3.852562 1.086272 -8.146052 -1.748961 -21.428743 -4.450884 20.250700 -5.627507 -6.785265 -3.429456 -0.660907 21.541450 -33.174618 14.680841 -11.515879 5.640801 -3.598663 -8.717508 3.699088 4.269645 7.642323 10.775735 3.663841 13.352048 -11.719029 -9.772621 -31.065034 -4.137894 -0.461218 -14.542392 5.163251 -0.652177 10.276207 -1.609591 -0.617320 -8.462415 10.685629 31.588176 -5.753142 -29.705346 -17.339821 16.932996 6.462626 -16.574476 1.908911 3.611877 9.023316 -0.074578 3.542683 11.707150 -0.000000 0.000000 0.000000 0.000000 0.000000 0.000000 0.000000 -19.994410 -38.345244 -9.160466 45.527713 19.089516 14.538417 -6.563864 14.098240 9.522111 0.913196 -0.464274 1.785997 1.284662 -9.277707 -0.000000 0.000000 0.000000 0.000000 0.000000 0.000000 0.000000 
3.396000 17.780150 0.335222 -0.475170 2.932620 7.868141 -1.945550 16.918273 4.681997 -14.586819 -6.446353 -11.862737 0.999692 -1.790739 15.760684 28.148344 -6.950296 -7.578714 -3.852335 1.085982 -8.146155 -1.749517 -21.430648 -4.450869 20.250744 -5.631437 -6.783750 -3.427236 -0.657785 21.537283 -33.177274 14.686654 -11.522563 5.640840 -3.597422 -8.719460 3.699261 4.272789 7.647153 10.776285 3.666914 13.362331 -11.722889 -9.773398 -31.071764 -4.137221 -0.458845 -14.543118 5.168396 -0.651256 10.270698 -1.608946 -0.621452 -8.465954 10.672849 31.604322 -5.743627 -29.678123 -17.378827 16.987037 6.466566 -16.558915 1.951480 3.609041 8.965710 -0.043173 3.532689 11.698830 0.000000 0.000000 0.000000 0.000000 0.000000 0.000000 0.000000 -19.986315 -38.362824 -9.171435 45.520340 19.102725 14.541170 -6.572494 14.110965 9.526357 0.901433 -0.475710 1.797932 1.274333 -9.278907 -0.000000 0.000000 0.000000 0.000000 0.000000 0.000000 0.000000 
3.395760 17.779850 0.335776 -0.477421 2.928629 7.869610 -1.945117 16.911687 4.684044 -14.580388 -6.445683 -11.857945 0.996964 -1.790486 15.749901 28.137616 -6.947651 -7.586135 -3.850642 1.087538 -8.137719 -1.750082 -21.434890 -4.452424 20.253131 -5.639717 -6.780667 -3.424132 -0.652961 21.532087 -33.174257 14.696160 -11.524621 5.644401 -3.598672 -8.724522 3.697193 4.278812 7.648945 10.785442 3.672143 13.375015 -11.729727 -9.779330 -31.077969 -4.135562 -0.458816 -14.544085 5.172170 -0.652247 10.271229 -1.608550 -0.625314 -8.465737 10.665106 31.609076 -5.745718 -29.658617 -17.401203 17.005269 6.457891 -16.566258 1.943668 3.610360 8.968537 -0.046309 3.533653 11.700794 0.000000 0.000000 0.000000 0.000000 0.000000 0.000000 0.000000 -19.988578 -38.369941 -9.170647 45.506573 19.107145 14.548661 -6.571499 14.138683 9.520987 0.908454 -0.484464 1.793403 1.280887 -9.280379 -0.000000 0.000000 0.000000 0.000000 0.000000 0.000000 0.000000 
3.395385 17.779550 0.336284 -0.478554 2.925215 7.873496 -1.944765 16.909213 4.678921 -14.578731 -6.437838 -11.852883 0.995291 -1.787963 15.742413 28.145329 -6.948381 -7.594787 -3.847637 1.085221 -8.136986 -1.750343 -21.434725 -4.450911 20.256456 -5.634747 -6.781675 -3.423855 -0.649266 21.531175 -33.170210 14.700453 -11.530597 5.647882 -3.598895 -8.731702 3.695857 4.281208 7.656952 10.784321 3.675186 13.377536 -11.728630 -9.779971 -31.084372 -4.136804 -0.450866 -14.542910 5.178435 -0.645820 10.268044 -1.607060 -0.627238 -8.468369 10.661917 31.612070 -5.745596 -29.650252 -17.407640 17.012236 6.456798 -16.588335 1.935792 3.620664 8.987943 -0.046972 3.543977 11.705272 0.000000 0.000000 0.000000 0.000000 0.000000 0.000000 0.000000 -19.984252 -38.380986 -9.176078 45.499988 19.123247 14.561108 -6.575590 14.145543 9.530171 0.904376 -0.476229 1.802241 1.278394 -9.279682 -0.000000 0.000000 0.000000 0.000000 0.000000 0.000000 0.000000 
3.394890 17.779250 0.336734 -0.479726 2.917874 7.877488 -1.944905 16.903822 4.676589 -14.574128 -6.433762 -11.848880 0.993162 -1.785759 15.733898 28.136069 -6.945602 -7.599179 -3.850219 1.086160 -8.139725 -1.750642 -21.437154 -4.452730 20.261286 -5.635385 -6.781566 -3.424128 -0.646108 21.528072 -33.184629 14.702280 -11.534540 5.640725 -3.595188 -8.721927 3.694780 4.286688 7.665846 10.785910 3.680757 13.382129 -11.734281 -9.781296 -31.090715 -4.135432 -0.450556 -14.541970 5.181356 -0.646709 10.264808 -1.606988 -0.630548 -8.470893 10.653958 31.619568 -5.741003 -29.637373 -17.424603 17.035919 6.463197 -16.595045 1.955760 3.627722 8.963059 -0.028241 3.547277 11.702431 0.000000 0.000000 0.000000 0.000000 0.000000 0.000000 0.000000 -19.984987 -38.388109 -9.187140 45.492814 19.124533 14.543916 -6.570076 14.162948 9.504707 0.920298 -0.525090 1.780815 1.290440 -9.286567 -0.000000 0.000000 0.000000 0.000000 0.000000 0.000000 0.000000 
